<?xml version="1.0" encoding="UTF-8" standalone="no"?>
<!-- Created with Inkscape (http://www.inkscape.org/) -->

<svg
   xmlns:dc="http://purl.org/dc/elements/1.1/"
   xmlns:cc="http://creativecommons.org/ns#"
   xmlns:rdf="http://www.w3.org/1999/02/22-rdf-syntax-ns#"
   xmlns:svg="http://www.w3.org/2000/svg"
   xmlns="http://www.w3.org/2000/svg"
   xmlns:xlink="http://www.w3.org/1999/xlink"
   xmlns:sodipodi="http://sodipodi.sourceforge.net/DTD/sodipodi-0.dtd"
   xmlns:inkscape="http://www.inkscape.org/namespaces/inkscape"
   width="283.28323"
   height="401.30655"
   id="svg2"
   version="1.1"
   inkscape:version="0.91 r13725"
   sodipodi:docname="HOA_Steward_Logo.svg"
   style="display:inline"
   viewBox="0 0 340.40822 400.78464">
  <defs
     id="defs4">
    <linearGradient
       id="linearGradient3637">
      <stop
         style="stop-color:#ffcc33;stop-opacity:1"
         offset="0"
         id="stop3639" />
      <stop
         id="stop3649"
         offset="0.125"
         style="stop-color:#ff9900;stop-opacity:1" />
      <stop
         id="stop3647"
         offset="0.32579678"
         style="stop-color:#333399;stop-opacity:1" />
      <stop
         id="stop3645"
         offset="0.63163137"
         style="stop-color:#003399;stop-opacity:1" />
      <stop
         style="stop-color:#3366cc;stop-opacity:1"
         offset="1"
         id="stop3641" />
    </linearGradient>
    <inkscape:perspective
       sodipodi:type="inkscape:persp3d"
       inkscape:vp_x="0 : 526.18109 : 1"
       inkscape:vp_y="0 : 999.99999 : 0"
       inkscape:vp_z="744.09449 : 526.18109 : 1"
       inkscape:persp3d-origin="372.04724 : 350.78739 : 1"
       id="perspective10" />
    <inkscape:perspective
       id="perspective2909"
       inkscape:persp3d-origin="0.5 : 0.33333333 : 1"
       inkscape:vp_z="1 : 0.5 : 1"
       inkscape:vp_y="0 : 999.99999 : 0"
       inkscape:vp_x="0 : 0.5 : 1"
       sodipodi:type="inkscape:persp3d" />
    <filter
       inkscape:collect="always"
       id="filter6084"
       style="color-interpolation-filters:sRGB">
      <feGaussianBlur
         inkscape:collect="always"
         stdDeviation="1.7030465"
         id="feGaussianBlur6086" />
    </filter>
    <linearGradient
       inkscape:collect="always"
       xlink:href="#linearGradient3637"
       id="linearGradient3643"
       x1="-73.79084"
       y1="782.97522"
       x2="190.20183"
       y2="299.97522"
       gradientUnits="userSpaceOnUse" />
    <linearGradient
       inkscape:collect="always"
       xlink:href="#linearGradient3637"
       id="linearGradient3729"
       gradientUnits="userSpaceOnUse"
       x1="-73.79084"
       y1="782.97522"
       x2="190.20183"
       y2="299.97522" />
    <linearGradient
       inkscape:collect="always"
       xlink:href="#linearGradient3637"
       id="linearGradient3731"
       gradientUnits="userSpaceOnUse"
       x1="-73.79084"
       y1="782.97522"
       x2="190.20183"
       y2="299.97522" />
    <linearGradient
       inkscape:collect="always"
       xlink:href="#linearGradient3637"
       id="linearGradient3733"
       gradientUnits="userSpaceOnUse"
       x1="-73.79084"
       y1="782.97522"
       x2="190.20183"
       y2="299.97522" />
    <linearGradient
       inkscape:collect="always"
       xlink:href="#linearGradient3637"
       id="linearGradient3735"
       gradientUnits="userSpaceOnUse"
       x1="-73.79084"
       y1="782.97522"
       x2="190.20183"
       y2="299.97522" />
    <linearGradient
       inkscape:collect="always"
       xlink:href="#linearGradient3637"
       id="linearGradient3737"
       gradientUnits="userSpaceOnUse"
       x1="-73.79084"
       y1="782.97522"
       x2="190.20183"
       y2="299.97522" />
    <linearGradient
       inkscape:collect="always"
       xlink:href="#linearGradient3637"
       id="linearGradient3739"
       gradientUnits="userSpaceOnUse"
       x1="-73.79084"
       y1="782.97522"
       x2="190.20183"
       y2="299.97522" />
  </defs>
  <sodipodi:namedview
     id="base"
     pagecolor="#ffffff"
     bordercolor="#666666"
     borderopacity="1.0"
     inkscape:pageopacity="0.0"
     inkscape:pageshadow="2"
     inkscape:zoom="0.50000002"
     inkscape:cx="-201.68414"
     inkscape:cy="-192.13435"
     inkscape:document-units="px"
     inkscape:current-layer="g3712"
     showgrid="false"
     showborder="true"
     inkscape:showpageshadow="false"
     borderlayer="false"
     inkscape:snap-nodes="false"
     inkscape:snap-global="false"
     inkscape:window-width="1440"
     inkscape:window-height="856"
     inkscape:window-x="0"
     inkscape:window-y="1"
     inkscape:window-maximized="1"
     fit-margin-top="0"
     fit-margin-left="0"
     fit-margin-right="0"
     fit-margin-bottom="0"
     units="px">
    <inkscape:grid
       type="xygrid"
       id="grid2820"
       empspacing="5"
       visible="true"
       enabled="true"
       snapvisiblegridlinesonly="true"
       dotted="true"
       originx="-118.08647"
       originy="-734.80136" />
    <sodipodi:guide
       position="16.750034,-38.680492"
       orientation="0,798.89935"
       id="guide3031" />
    <sodipodi:guide
       position="815.64939,-38.680492"
       orientation="-480.62506,0"
       id="guide3033" />
    <sodipodi:guide
       position="815.64939,441.94457"
       orientation="0,-798.89935"
       id="guide3035" />
    <sodipodi:guide
       position="16.750034,441.94457"
       orientation="480.62506,0"
       id="guide3037" />
  </sodipodi:namedview>
  <metadata
     id="metadata7">
    <rdf:RDF>
      <cc:Work
         rdf:about="">
        <dc:format>image/svg+xml</dc:format>
        <dc:type
           rdf:resource="http://purl.org/dc/dcmitype/StillImage" />
        <dc:title></dc:title>
      </cc:Work>
    </rdf:RDF>
  </metadata>
  <g
     inkscape:label="Quill"
     inkscape:groupmode="layer"
     id="layer1"
     transform="translate(-95.45913,-495.21778)"
     style="display:inline" />
  <g
     style="display:inline"
     transform="translate(-95.45913,-495.21778)"
     id="g3712"
     inkscape:groupmode="layer"
     inkscape:label="Shadow">
    <g
       id="quill-and-shadow"
       inkscape:label="#g2862">
      <g
         transform="translate(196,144)"
         style="display:inline;fill:url(#linearGradient3739);fill-opacity:1"
         id="g3630">
        <path
           style="fill:url(#linearGradient3729);fill-opacity:1;stroke:none"
           d="m -58.904249,629.18717 c -11.347252,44.87694 -13.655559,67.97823 -14.66718,87.95569 l 2.019922,-0.079 3.484835,-17.89392 c 1.374788,-6.40098 3.813388,-11.24716 9.495243,-11.3532 C -42.754948,565.18157 4.5131711,476.21234 114.28571,296.03105 l -80.714281,147.54038 49.285714,-20 c 10.003182,-6.10899 20.838417,-11.66328 25.357147,-21.42857 38.51476,-29.87201 37.33578,-53.47658 41.07142,-77.85715 -1.00447,5.09282 -6.37102,12.71105 -25.35714,28.21429 L 92.5,372.14286 145.71429,323.57143 c 12.88102,-11.41316 45.3438,-49.74622 46.71977,-70.09891 -2.67993,2.66345 -5.44529,4.4727 -8.46003,3.78808 1.28977,-5.93615 2.38454,-11.8918 10.2278,-17.1726 -7.02432,-0.12528 -14.77882,2.23208 -23.48605,7.82869 -0.65142,-2.56747 1.02454,-5.13495 3.03046,-7.70242 -72.08778,36.98981 -88.655017,55.30315 -119.243882,79.84328 -12.102892,11.86419 -21.057198,89.29687 -21.057198,89.29687 0,0 0.858709,-37.46041 8.697697,-66.85442 l -13.214286,13.92857 c -6.699169,8.96661 -9.270778,34.14862 -11.323966,61.36729 0,0 -4.187002,-29.0436 5.609681,-56.72443 -22.78055936,22.81468 -45.189206,46.00127 -61.428572,75.35714 -13.55274,21.92178 -18.018244,60.00234 6.071429,104.28572 -13.011263,-12.16956 -20.898131,-36.86542 -24.821429,-71.25001 -0.882296,24.34116 5.558498,49.29258 16.785714,74.64286 -7.220311,-10.07476 -21.73646,-45.24202 -18.75,-73.75 -8.596702,40.4236 19.04373,66.7634 14.107143,98.75 -3.387119,-36.81834 -25.07638,-58.05704 -15.714285,-98.03571 -16.545164,35.89384 7.296452,80.76382 9.642857,101.07143 -6.766613,-25.24669 -23.822819,-37.45322 -29.285715,-72.67858 -1.461092,44.61714 29.204615,62.77079 30.428559,99.35415 -7.025204,-27.23292 -34.562425,-57.75454 -32.072343,-97.47972 -11.485734,60.44178 31.210569,94.3211 27.274118,115.66246 -2.525381,-9.1432 -5.050763,-11.56052 -7.576144,-15.65736 3.715048,7.73023 6.750884,15.04808 5.808378,19.95051 -3.325787,-13.21096 -15.100325,-13.39685 -19.192899,-25.75889 1.559472,13.63773 20.955017,15.15586 16.604654,33.65174 z"
           sodipodi:nodetypes="cccccccccccccccccccccccccccccccccccccccc"
           transform="translate(0,62.36218)"
           id="path2826"
           inkscape:connector-curvature="0" />
        <path
           style="fill:url(#linearGradient3731);fill-opacity:1;stroke:none"
           d="M -28.549436,580.89453 C -15.679788,542.67486 -1.5969839,508.28998 31.05464,448.32978 64.723763,432.34177 81.544587,430.87745 95.5,418 87.980958,446.92892 69.685473,465.27551 50.691942,508.72357 26.266962,561.768 -6.701672,565.07638 -28.549436,580.89453 Z"
           id="path3716"
           transform="translate(0,62.36218)"
           sodipodi:nodetypes="ccccc"
           inkscape:connector-curvature="0" />
        <path
           style="fill:url(#linearGradient3733);fill-opacity:1;stroke:none"
           d="M -40.5,622.75 -29.75,584 c 35.3592856,-15.00642 47.275864,-21.89789 59,-36.25 -10.720387,59.45183 -46.212961,53.91617 -69.75,75 z"
           id="path3718"
           transform="translate(0,62.36218)"
           sodipodi:nodetypes="cccc"
           inkscape:connector-curvature="0" />
        <path
           style="fill:url(#linearGradient3735);fill-opacity:1;stroke:none"
           d="m -40.923805,624.82354 -0.839689,3.57973 c 5.201473,-2.72713 6.795959,-4.72361 20.461902,-6.36396 -5.990982,-0.21786 -12.659037,0.27692 -19.622213,2.78423 z"
           id="path3720"
           transform="translate(0,62.36218)"
           sodipodi:nodetypes="cccc"
           inkscape:connector-curvature="0" />
        <path
           style="fill:url(#linearGradient3737);fill-opacity:1;stroke:none"
           d="m -42.426407,630.78976 -0.176776,4.24264 c 6.472261,-4.1986 10.507,-6.47615 26.339727,-8.61787 -9.258817,0.30004 -11.289537,-0.40383 -26.162951,4.37523 z"
           id="path3722"
           transform="translate(0,62.36218)"
           sodipodi:nodetypes="cccc"
           inkscape:connector-curvature="0" />
      </g>
      <path
         style="fill:#4d4d4d;fill-opacity:1;stroke:none;filter:url(#filter6084)"
         d="m 124,922.61218 c 2.7274,5.45903 51.53022,-51.05639 283.5,-55.75 -172.21631,-7.90092 -288.79971,43.9729 -283.5,55.75 z"
         id="path3727"
         sodipodi:nodetypes="ccc"
         inkscape:connector-curvature="0" />
    </g>
  </g>
  <g
     inkscape:label="HOA"
     id="g2852"
     inkscape:groupmode="layer"
     style="display:inline"
     transform="translate(-95.45913,-432.85578)" />
  <g
     inkscape:groupmode="layer"
     id="layer4"
     inkscape:label="Steward"
     style="display:inline"
     transform="translate(-95.45913,-432.85578)" />
</svg>
